# xmcd
# 
# Track frame offsets:
#     150
#     17192
#     32435
#     60235
#     77760
#     96120
#     112295
#     131145
#     155255
#     175755
#     194870
#     215005
#     231830
# 
# Disc length: 3473
# 
# Revision: 3
# Processed by: cddbd v1.5.2PL0 Copyright (c) Steve Scherf et al.
# Submitted via: BonkEnc v1.0.6
# 
DISCID=b20d8f0d
DTITLE=Mystery - Backwards
DYEAR=1995
DGENRE=General Rock
TTITLE0=Runaway
TTITLE1=Burnin Up
TTITLE2=Call Of The Whale
TTITLE3=Paradise
TTITLE4=Stranger
TTITLE5=You And I
TTITLE6=No More Tears
TTITLE7=Talk To Me
TTITLE8=Smile
TTITLE9=Time
TTITLE10=Everything To Me
TTITLE11=Liquid Darkness
TTITLE12=Sarajevo
EXTD=YEAR: 1995
EXTT0=
EXTT1=
EXTT2=
EXTT3=
EXTT4=
EXTT5=
EXTT6=
EXTT7=
EXTT8=
EXTT9=
EXTT10=
EXTT11=
EXTT12=
PLAYORDER=
